<svg width="918" height="518" viewBox="0 0 918 518" fill="none" xmlns="http://www.w3.org/2000/svg">
<g id="undraw_Progress_indicator_re_4o4n 1" clip-path="url(#clip0)">
<g id="boundary">
<path id="Vector" d="M144.555 235.086C126.255 235.086 108.705 227.817 95.7648 214.877C82.8248 201.937 75.5552 184.386 75.5552 166.086C75.5552 147.786 82.8248 130.236 95.7648 117.296C108.705 104.356 126.255 97.0864 144.555 97.0864H772.555C790.855 97.0864 808.406 104.356 821.346 117.296C834.286 130.236 841.555 147.786 841.555 166.086C841.555 184.386 834.286 201.937 821.346 214.877C808.406 227.817 790.855 235.086 772.555 235.086H144.555Z" fill="#E6E6E6"/>
<path id="Vector_2" d="M144.555 106.086C128.642 106.086 113.381 112.408 102.129 123.66C90.8766 134.912 84.5552 150.173 84.5552 166.086C84.5552 181.999 90.8766 197.261 102.129 208.513C113.381 219.765 128.642 226.086 144.555 226.086H772.555C788.468 226.086 803.729 219.765 814.982 208.513C826.234 197.261 832.555 181.999 832.555 166.086C832.555 150.173 826.234 134.912 814.982 123.66C803.729 112.408 788.468 106.086 772.555 106.086H144.555Z" fill="white"/>
</g>
<g id="dividers">
<path id="Vector_3" d="M210.222 106.087H208.222V226.087H210.222V106.087Z" fill="#E6E6E6"/>
<path id="Vector_4" d="M335.055 106.087H333.055V226.087H335.055V106.087Z" fill="#E6E6E6"/>
<path id="Vector_5" d="M460.055 106.087H458.055V226.087H460.055V106.087Z" fill="#E6E6E6"/>
<path id="Vector_6" d="M584.055 106.087H582.055V226.087H584.055V106.087Z" fill="#E6E6E6"/>
<path id="Vector_7" d="M709.055 106.087H707.055V226.087H709.055V106.087Z" fill="#E6E6E6"/>
</g>
<g id="task2">
<path id="Vector_8" d="M242.733 148.086C242.352 148.086 241.975 148.16 241.623 148.305C241.271 148.45 240.951 148.664 240.682 148.933C240.412 149.202 240.198 149.521 240.053 149.873C239.907 150.224 239.832 150.601 239.832 150.982C239.832 151.363 239.907 151.74 240.053 152.091C240.198 152.443 240.412 152.762 240.682 153.031C240.951 153.3 241.271 153.514 241.623 153.659C241.975 153.804 242.352 153.878 242.733 153.878H301.472C301.853 153.878 302.229 153.804 302.581 153.659C302.932 153.515 303.252 153.302 303.521 153.033C303.791 152.765 304.005 152.446 304.151 152.095C304.297 151.744 304.373 151.368 304.373 150.988C304.374 150.607 304.3 150.231 304.155 149.879C304.01 149.527 303.798 149.208 303.529 148.938C303.261 148.669 302.942 148.455 302.591 148.309C302.24 148.163 301.864 148.087 301.484 148.086H242.733Z" fill="#E6E6E6"/>
<path id="Vector_9" d="M242.733 163.086C242.352 163.086 241.975 163.16 241.623 163.305C241.271 163.45 240.951 163.664 240.682 163.933C240.412 164.202 240.198 164.521 240.053 164.873C239.907 165.224 239.832 165.601 239.832 165.982C239.832 166.363 239.907 166.74 240.053 167.091C240.198 167.443 240.412 167.762 240.682 168.031C240.951 168.3 241.271 168.514 241.623 168.659C241.975 168.804 242.352 168.878 242.733 168.878H301.472C301.853 168.878 302.229 168.804 302.581 168.659C302.932 168.515 303.252 168.302 303.521 168.033C303.791 167.765 304.005 167.446 304.151 167.095C304.297 166.744 304.373 166.368 304.373 165.988C304.374 165.607 304.3 165.231 304.155 164.879C304.01 164.527 303.798 164.208 303.529 163.938C303.261 163.669 302.942 163.455 302.591 163.309C302.24 163.163 301.864 163.087 301.484 163.086H242.733Z" fill="#E6E6E6"/>
<path id="Vector_10" d="M242.733 178.086C242.352 178.086 241.975 178.16 241.623 178.305C241.271 178.45 240.951 178.664 240.682 178.933C240.412 179.202 240.198 179.521 240.053 179.873C239.907 180.224 239.832 180.601 239.832 180.982C239.832 181.363 239.907 181.74 240.053 182.091C240.198 182.443 240.412 182.762 240.682 183.031C240.951 183.3 241.271 183.514 241.623 183.659C241.975 183.804 242.352 183.878 242.733 183.878H301.472C301.853 183.878 302.229 183.804 302.581 183.659C302.932 183.515 303.252 183.302 303.521 183.033C303.791 182.765 304.005 182.446 304.151 182.095C304.297 181.744 304.373 181.368 304.373 180.988C304.374 180.607 304.3 180.231 304.155 179.879C304.01 179.527 303.798 179.208 303.529 178.938C303.261 178.669 302.942 178.455 302.591 178.309C302.24 178.163 301.864 178.087 301.484 178.086H242.733Z" fill="#E6E6E6"/>
</g>
<g id="task3">
<path id="Vector_11" d="M366.733 148.086C366.352 148.086 365.975 148.16 365.623 148.305C365.271 148.45 364.951 148.664 364.682 148.933C364.412 149.202 364.198 149.521 364.053 149.873C363.907 150.224 363.832 150.601 363.832 150.982C363.832 151.363 363.907 151.74 364.053 152.091C364.198 152.443 364.412 152.762 364.682 153.031C364.951 153.3 365.271 153.514 365.623 153.659C365.975 153.804 366.352 153.878 366.733 153.878H425.472C425.853 153.878 426.23 153.804 426.582 153.659C426.934 153.514 427.254 153.3 427.523 153.031C427.793 152.762 428.006 152.443 428.152 152.091C428.298 151.74 428.373 151.363 428.373 150.982C428.373 150.601 428.298 150.224 428.152 149.873C428.006 149.521 427.793 149.202 427.523 148.933C427.254 148.664 426.934 148.45 426.582 148.305C426.23 148.16 425.853 148.086 425.472 148.086H366.733Z" fill="#E6E6E6"/>
<path id="Vector_12" d="M366.733 163.086C366.352 163.086 365.975 163.16 365.623 163.305C365.271 163.45 364.951 163.664 364.682 163.933C364.412 164.202 364.198 164.521 364.053 164.873C363.907 165.224 363.832 165.601 363.832 165.982C363.832 166.363 363.907 166.74 364.053 167.091C364.198 167.443 364.412 167.762 364.682 168.031C364.951 168.3 365.271 168.514 365.623 168.659C365.975 168.804 366.352 168.878 366.733 168.878H425.472C425.853 168.878 426.23 168.804 426.582 168.659C426.934 168.514 427.254 168.3 427.523 168.031C427.793 167.762 428.006 167.443 428.152 167.091C428.298 166.74 428.373 166.363 428.373 165.982C428.373 165.601 428.298 165.224 428.152 164.873C428.006 164.521 427.793 164.202 427.523 163.933C427.254 163.664 426.934 163.45 426.582 163.305C426.23 163.16 425.853 163.086 425.472 163.086H366.733Z" fill="#E6E6E6"/>
<path id="Vector_13" d="M366.733 178.086C366.352 178.086 365.975 178.16 365.623 178.305C365.271 178.45 364.951 178.664 364.682 178.933C364.412 179.202 364.198 179.521 364.053 179.873C363.907 180.224 363.832 180.601 363.832 180.982C363.832 181.363 363.907 181.74 364.053 182.091C364.198 182.443 364.412 182.762 364.682 183.031C364.951 183.3 365.271 183.514 365.623 183.659C365.975 183.804 366.352 183.878 366.733 183.878H425.472C425.853 183.878 426.23 183.804 426.582 183.659C426.934 183.514 427.254 183.3 427.523 183.031C427.793 182.762 428.006 182.443 428.152 182.091C428.298 181.74 428.373 181.363 428.373 180.982C428.373 180.601 428.298 180.224 428.152 179.873C428.006 179.521 427.793 179.202 427.523 178.933C427.254 178.664 426.934 178.45 426.582 178.305C426.23 178.16 425.853 178.086 425.472 178.086H366.733Z" fill="#E6E6E6"/>
</g>
<g id="task4">
<path id="Vector_14" d="M491.733 148.086C490.966 148.088 490.23 148.393 489.689 148.936C489.147 149.479 488.842 150.215 488.842 150.982C488.842 151.749 489.147 152.485 489.689 153.028C490.23 153.57 490.966 153.876 491.733 153.878H550.472C550.853 153.878 551.23 153.804 551.582 153.659C551.934 153.514 552.254 153.3 552.523 153.031C552.793 152.762 553.006 152.443 553.152 152.091C553.298 151.74 553.373 151.363 553.373 150.982C553.373 150.601 553.298 150.224 553.152 149.873C553.006 149.521 552.793 149.202 552.523 148.933C552.254 148.664 551.934 148.45 551.582 148.305C551.23 148.16 550.853 148.086 550.472 148.086H491.733Z" fill="#E6E6E6"/>
<path id="Vector_15" d="M491.733 163.086C490.966 163.088 490.23 163.393 489.689 163.936C489.147 164.479 488.842 165.215 488.842 165.982C488.842 166.749 489.147 167.485 489.689 168.028C490.23 168.57 490.966 168.876 491.733 168.878H550.472C550.853 168.878 551.23 168.804 551.582 168.659C551.934 168.514 552.254 168.3 552.523 168.031C552.793 167.762 553.006 167.443 553.152 167.091C553.298 166.74 553.373 166.363 553.373 165.982C553.373 165.601 553.298 165.224 553.152 164.873C553.006 164.521 552.793 164.202 552.523 163.933C552.254 163.664 551.934 163.45 551.582 163.305C551.23 163.16 550.853 163.086 550.472 163.086H491.733Z" fill="#E6E6E6"/>
<path id="Vector_16" d="M491.733 178.086C490.966 178.088 490.23 178.393 489.689 178.936C489.147 179.479 488.842 180.215 488.842 180.982C488.842 181.749 489.147 182.485 489.689 183.028C490.23 183.57 490.966 183.876 491.733 183.878H550.472C550.853 183.878 551.23 183.804 551.582 183.659C551.934 183.514 552.254 183.3 552.523 183.031C552.793 182.762 553.006 182.443 553.152 182.091C553.298 181.74 553.373 181.363 553.373 180.982C553.373 180.601 553.298 180.224 553.152 179.873C553.006 179.521 552.793 179.202 552.523 178.933C552.254 178.664 551.934 178.45 551.582 178.305C551.23 178.16 550.853 178.086 550.472 178.086H491.733Z" fill="#E6E6E6"/>
</g>
<g id="task5">
<path id="Vector_17" d="M616.233 148.086C615.466 148.088 614.731 148.393 614.189 148.936C613.647 149.479 613.342 150.215 613.342 150.982C613.342 151.749 613.647 152.485 614.189 153.028C614.731 153.57 615.466 153.876 616.233 153.878H674.972C675.353 153.878 675.73 153.804 676.082 153.659C676.434 153.514 676.754 153.3 677.023 153.031C677.293 152.762 677.506 152.443 677.652 152.091C677.798 151.74 677.873 151.363 677.873 150.982C677.873 150.601 677.798 150.224 677.652 149.873C677.506 149.521 677.293 149.202 677.023 148.933C676.754 148.664 676.434 148.45 676.082 148.305C675.73 148.16 675.353 148.086 674.972 148.086H616.233Z" fill="#E6E6E6"/>
<path id="Vector_18" d="M616.233 163.086C615.466 163.088 614.731 163.393 614.189 163.936C613.647 164.479 613.342 165.215 613.342 165.982C613.342 166.749 613.647 167.485 614.189 168.028C614.731 168.57 615.466 168.876 616.233 168.878H674.972C675.353 168.878 675.73 168.804 676.082 168.659C676.434 168.514 676.754 168.3 677.023 168.031C677.293 167.762 677.506 167.443 677.652 167.091C677.798 166.74 677.873 166.363 677.873 165.982C677.873 165.601 677.798 165.224 677.652 164.873C677.506 164.521 677.293 164.202 677.023 163.933C676.754 163.664 676.434 163.45 676.082 163.305C675.73 163.16 675.353 163.086 674.972 163.086H616.233Z" fill="#E6E6E6"/>
<path id="Vector_19" d="M616.233 178.086C615.466 178.088 614.731 178.393 614.189 178.936C613.647 179.479 613.342 180.215 613.342 180.982C613.342 181.749 613.647 182.485 614.189 183.028C614.731 183.57 615.466 183.876 616.233 183.878H674.972C675.353 183.878 675.73 183.804 676.082 183.659C676.434 183.514 676.754 183.3 677.023 183.031C677.293 182.762 677.506 182.443 677.652 182.091C677.798 181.74 677.873 181.363 677.873 180.982C677.873 180.601 677.798 180.224 677.652 179.873C677.506 179.521 677.293 179.202 677.023 178.933C676.754 178.664 676.434 178.45 676.082 178.305C675.73 178.16 675.353 178.086 674.972 178.086H616.233Z" fill="#E6E6E6"/>
</g>
<g id="task6">
<path id="Vector_20" d="M737.733 148.086C736.966 148.088 736.231 148.393 735.689 148.936C735.147 149.479 734.842 150.215 734.842 150.982C734.842 151.749 735.147 152.485 735.689 153.028C736.231 153.57 736.966 153.876 737.733 153.878H796.472C796.853 153.878 797.23 153.804 797.582 153.659C797.934 153.514 798.254 153.3 798.523 153.031C798.793 152.762 799.006 152.443 799.152 152.091C799.298 151.74 799.373 151.363 799.373 150.982C799.373 150.601 799.298 150.224 799.152 149.873C799.006 149.521 798.793 149.202 798.523 148.933C798.254 148.664 797.934 148.45 797.582 148.305C797.23 148.16 796.853 148.086 796.472 148.086H737.733Z" fill="#E6E6E6"/>
<path id="Vector_21" d="M737.733 163.086C736.966 163.088 736.231 163.393 735.689 163.936C735.147 164.479 734.842 165.215 734.842 165.982C734.842 166.749 735.147 167.485 735.689 168.028C736.231 168.57 736.966 168.876 737.733 168.878H796.472C796.853 168.878 797.23 168.804 797.582 168.659C797.934 168.514 798.254 168.3 798.523 168.031C798.793 167.762 799.006 167.443 799.152 167.091C799.298 166.74 799.373 166.363 799.373 165.982C799.373 165.601 799.298 165.224 799.152 164.873C799.006 164.521 798.793 164.202 798.523 163.933C798.254 163.664 797.934 163.45 797.582 163.305C797.23 163.16 796.853 163.086 796.472 163.086H737.733Z" fill="#E6E6E6"/>
<path id="Vector_22" d="M737.733 178.086C736.966 178.088 736.231 178.393 735.689 178.936C735.147 179.479 734.842 180.215 734.842 180.982C734.842 181.749 735.147 182.485 735.689 183.028C736.231 183.57 736.966 183.876 737.733 183.878H796.472C796.853 183.878 797.23 183.804 797.582 183.659C797.934 183.514 798.254 183.3 798.523 183.031C798.793 182.762 799.006 182.443 799.152 182.091C799.298 181.74 799.373 181.363 799.373 180.982C799.373 180.601 799.298 180.224 799.152 179.873C799.006 179.521 798.793 179.202 798.523 178.933C798.254 178.664 797.934 178.45 797.582 178.305C797.23 178.16 796.853 178.086 796.472 178.086H737.733Z" fill="#E6E6E6"/>
</g>
<g id="task1">
<path id="Vector_23" d="M117.733 148.086C116.966 148.088 116.23 148.393 115.689 148.936C115.147 149.479 114.842 150.215 114.842 150.982C114.842 151.749 115.147 152.485 115.689 153.028C116.23 153.57 116.966 153.876 117.733 153.878H176.472C176.852 153.878 177.229 153.804 177.581 153.659C177.932 153.514 178.252 153.302 178.521 153.033C178.791 152.765 179.005 152.446 179.151 152.095C179.297 151.744 179.373 151.368 179.373 150.988C179.374 150.607 179.3 150.231 179.155 149.879C179.01 149.527 178.798 149.208 178.529 148.938C178.261 148.669 177.942 148.455 177.591 148.309C177.24 148.163 176.864 148.087 176.484 148.086H117.733Z" fill="#E6E6E6"/>
<path id="Vector_24" d="M117.733 163.086C116.966 163.088 116.23 163.393 115.689 163.936C115.147 164.479 114.842 165.215 114.842 165.982C114.842 166.749 115.147 167.485 115.689 168.028C116.23 168.57 116.966 168.876 117.733 168.878H176.472C176.852 168.878 177.229 168.804 177.581 168.659C177.932 168.514 178.252 168.302 178.521 168.033C178.791 167.765 179.005 167.446 179.151 167.095C179.297 166.744 179.373 166.368 179.373 165.988C179.374 165.607 179.3 165.231 179.155 164.879C179.01 164.527 178.798 164.208 178.529 163.938C178.261 163.669 177.942 163.455 177.591 163.309C177.24 163.163 176.864 163.087 176.484 163.086H117.733Z" fill="#E6E6E6"/>
<path id="Vector_25" d="M117.733 178.086C116.966 178.088 116.23 178.393 115.689 178.936C115.147 179.479 114.842 180.215 114.842 180.982C114.842 181.749 115.147 182.485 115.689 183.028C116.23 183.57 116.966 183.876 117.733 183.878H176.472C176.852 183.878 177.229 183.804 177.581 183.659C177.932 183.514 178.252 183.302 178.521 183.033C178.791 182.765 179.005 182.446 179.151 182.095C179.297 181.744 179.373 181.368 179.373 180.988C179.374 180.607 179.3 180.231 179.155 179.879C179.01 179.527 178.798 179.208 178.529 178.938C178.261 178.669 177.942 178.455 177.591 178.309C177.24 178.163 176.864 178.087 176.484 178.086H117.733Z" fill="#E6E6E6"/>
</g>
<g id="marker">
<path id="Vector_26" d="M396.173 94.7642C422.341 94.7642 443.555 73.5505 443.555 47.3821C443.555 21.2137 422.341 0 396.173 0C370.005 0 348.791 21.2137 348.791 47.3821C348.791 73.5505 370.005 94.7642 396.173 94.7642Z" fill="#6C63FF"/>
<path id="Vector_27" d="M396.173 124.408L381.357 98.747L366.542 73.086H396.173H425.803L410.988 98.747L396.173 124.408Z" fill="#6C63FF"/>
<path id="Vector_28" d="M396.555 64.0864C405.944 64.0864 413.555 56.4752 413.555 47.0864C413.555 37.6975 405.944 30.0864 396.555 30.0864C387.166 30.0864 379.555 37.6975 379.555 47.0864C379.555 56.4752 387.166 64.0864 396.555 64.0864Z" fill="white"/>
</g>
<g id="body">
<path id="Vector_29" d="M587.953 337.056C586.577 336.299 585.383 335.251 584.456 333.983C583.529 332.715 582.891 331.26 582.587 329.719C582.283 328.178 582.321 326.589 582.698 325.065C583.074 323.54 583.781 322.116 584.767 320.894L570.878 224.04L594.231 224.683L600.54 319.685C602.484 321.478 603.702 323.922 603.964 326.553C604.226 329.184 603.514 331.82 601.962 333.961C600.411 336.102 598.128 337.6 595.546 338.17C592.964 338.741 590.262 338.344 587.953 337.056V337.056Z" fill="#A0616A"/>
<path id="Vector_30" d="M567.834 239.841C567.302 239.398 566.872 238.845 566.574 238.221C566.275 237.596 566.115 236.915 566.104 236.223L565.712 212.05C565.135 208.556 565.967 204.975 568.025 202.094C570.084 199.212 573.201 197.264 576.694 196.677C580.187 196.091 583.769 196.913 586.657 198.963C589.544 201.014 591.5 204.126 592.097 207.617L599.51 230.711C599.721 231.37 599.788 232.067 599.706 232.754C599.624 233.441 599.395 234.103 599.034 234.694C598.673 235.284 598.189 235.79 597.615 236.177C597.041 236.564 596.39 236.823 595.708 236.935L571.704 240.896C571.021 241.009 570.322 240.973 569.654 240.791C568.986 240.609 568.365 240.285 567.834 239.841V239.841Z" fill="#6C63FF"/>
<path id="Vector_31" d="M523.354 504.84H511.095L505.262 457.552H523.357L523.354 504.84Z" fill="#A0616A"/>
<path id="Vector_32" d="M526.481 516.724L486.95 516.723V516.223C486.95 514.202 487.348 512.201 488.121 510.335C488.895 508.468 490.028 506.772 491.457 505.343C492.886 503.914 494.582 502.781 496.449 502.008C498.315 501.234 500.316 500.836 502.337 500.837H502.338L526.482 500.838L526.481 516.724Z" fill="#2F2E41"/>
<path id="Vector_33" d="M592.354 504.84H580.095L574.262 457.552H592.357L592.354 504.84Z" fill="#A0616A"/>
<path id="Vector_34" d="M595.481 516.724L555.95 516.723V516.223C555.95 514.202 556.348 512.201 557.122 510.335C557.895 508.468 559.028 506.772 560.457 505.343C561.886 503.914 563.582 502.781 565.449 502.008C567.315 501.234 569.316 500.836 571.337 500.837H571.338L595.482 500.838L595.481 516.724Z" fill="#2F2E41"/>
<path id="Vector_35" d="M575.087 482.176L553.644 369.176C553.586 368.832 553.405 368.52 553.136 368.298C552.867 368.076 552.527 367.958 552.178 367.965H552.171C551.824 367.956 551.484 368.072 551.215 368.293C550.945 368.513 550.763 368.822 550.702 369.165L528.412 481.941C528.191 483.017 527.585 483.975 526.707 484.634C525.829 485.294 524.74 485.61 523.645 485.523L506.219 484.129C505.624 484.082 505.045 483.916 504.515 483.643C503.985 483.369 503.514 482.993 503.131 482.536C502.747 482.079 502.458 481.551 502.281 480.981C502.104 480.411 502.042 479.812 502.098 479.218L516.758 320.795L591.678 322.749L592.142 322.761L599.511 481.093C599.54 481.702 599.445 482.309 599.233 482.88C599.02 483.45 598.693 483.972 598.273 484.413C597.853 484.853 597.348 485.204 596.788 485.444C596.228 485.683 595.625 485.807 595.016 485.807H579.502C578.46 485.805 577.45 485.443 576.645 484.781C575.84 484.119 575.29 483.199 575.087 482.176V482.176Z" fill="#2F2E41"/>
<path id="Vector_36" d="M515.059 329.616C514.223 329.192 513.541 328.516 513.108 327.685C512.675 326.853 512.513 325.907 512.645 324.979C515.82 302.291 513.798 262.171 511.542 232.511C509.996 212.184 523.658 193.986 543.322 190.18C543.628 190.122 543.934 190.064 544.24 190.009H544.24C550.276 188.905 556.486 189.219 562.379 190.925C568.273 192.632 573.69 195.685 578.202 199.843C582.794 204.011 586.355 209.189 588.604 214.969C590.852 220.749 591.726 226.972 591.158 233.148C588.243 266.211 593.418 315.706 594.485 325.292C594.56 326.004 594.466 326.723 594.211 327.392C593.956 328.061 593.546 328.66 593.016 329.141C583.048 338.239 571.024 341.316 559.318 341.316C540.386 341.316 522.284 333.266 515.059 329.616Z" fill="#6C63FF"/>
<path id="Vector_37" d="M496.799 337.325C498.248 336.722 499.548 335.807 500.607 334.647C501.665 333.487 502.456 332.108 502.924 330.609C503.392 329.11 503.525 327.526 503.315 325.97C503.105 324.414 502.556 322.922 501.707 321.601L525.944 226.806L502.657 224.93L486.155 318.701C484.03 320.274 482.556 322.572 482.012 325.16C481.468 327.748 481.893 330.445 483.204 332.741C484.516 335.036 486.625 336.771 489.13 337.616C491.636 338.461 494.364 338.358 496.799 337.325V337.325Z" fill="#A0616A"/>
<path id="Vector_38" d="M523.307 243.474L499.87 236.952C499.203 236.767 498.584 236.439 498.055 235.993C497.526 235.547 497.099 234.991 496.804 234.365C496.509 233.739 496.352 233.057 496.345 232.365C496.337 231.673 496.479 230.987 496.76 230.354L506.616 208.193C507.585 204.787 509.865 201.904 512.956 200.176C516.048 198.448 519.698 198.016 523.107 198.976C526.516 199.935 529.406 202.207 531.142 205.294C532.879 208.38 533.32 212.03 532.37 215.441L529.378 239.431C529.292 240.118 529.059 240.778 528.695 241.367C528.331 241.956 527.844 242.459 527.268 242.843C526.692 243.226 526.04 243.481 525.356 243.59C524.673 243.699 523.974 243.66 523.307 243.474V243.474Z" fill="#6C63FF"/>
<path id="Vector_39" d="M656.028 517.759H402.028C401.763 517.759 401.509 517.654 401.321 517.466C401.134 517.279 401.028 517.024 401.028 516.759C401.028 516.494 401.134 516.24 401.321 516.052C401.509 515.865 401.763 515.759 402.028 515.759H656.028C656.293 515.759 656.548 515.865 656.735 516.052C656.923 516.24 657.028 516.494 657.028 516.759C657.028 517.024 656.923 517.279 656.735 517.466C656.548 517.654 656.293 517.759 656.028 517.759Z" fill="#3F3D56"/>
</g>
<g id="head">
<path id="Vector_40" d="M551.082 181.549C564.647 181.549 575.643 170.553 575.643 156.988C575.643 143.424 564.647 132.427 551.082 132.427C537.517 132.427 526.521 143.424 526.521 156.988C526.521 170.553 537.517 181.549 551.082 181.549Z" fill="#A0616A"/>
<path id="Vector_41" d="M559.656 181.203C561.981 181.246 564.291 180.828 566.453 179.973C567.405 179.606 568.392 179.305 569.342 178.938C577.729 175.698 583.253 166.766 583.451 157.777C583.649 148.789 578.994 140.064 572.082 134.315C565.17 128.565 556.217 125.614 547.252 124.931C537.595 124.196 526.722 126.645 521.326 134.687C519.89 136.827 518.885 139.424 519.736 142.009C519.991 142.789 520.446 143.488 521.056 144.037C523.466 146.181 525.869 144.569 528.325 144.427C531.702 144.231 534.734 146.964 535.824 150.166C536.914 153.367 536.435 156.892 535.555 160.158C534.884 162.123 534.461 164.164 534.296 166.234C534.225 167.272 534.42 168.31 534.863 169.252C535.306 170.193 535.982 171.006 536.827 171.612C538.937 172.888 541.708 172.15 543.819 170.876C545.93 169.603 547.755 167.833 550.035 166.896C552.315 165.959 555.379 166.166 556.706 168.244C557.128 169 557.414 169.824 557.55 170.679C558.74 176.101 558.466 175.781 559.656 181.202V181.203Z" fill="#2F2E41"/>
</g>
<g id="side icons">
<path id="Vector_42" d="M887.168 175.83C886.968 175.83 886.771 175.791 886.586 175.714C886.402 175.638 886.235 175.526 886.094 175.385L877.889 167.18C877.604 166.895 877.444 166.509 877.444 166.106C877.444 165.703 877.604 165.317 877.889 165.032C878.174 164.747 878.56 164.587 878.963 164.587C879.366 164.587 879.753 164.747 880.038 165.032L886.99 171.984L899.313 155.18C899.552 154.856 899.909 154.639 900.307 154.579C900.705 154.518 901.111 154.617 901.435 154.855C901.76 155.093 901.977 155.45 902.038 155.848C902.1 156.246 902.001 156.652 901.764 156.977L888.393 175.209C888.264 175.386 888.097 175.532 887.906 175.639C887.714 175.745 887.502 175.809 887.284 175.826C887.245 175.829 887.206 175.83 887.168 175.83Z" fill="#6C63FF"/>
<path id="Vector_43" d="M20.4031 175.598C20.1026 175.598 19.8089 175.509 19.5591 175.342C19.3093 175.175 19.1146 174.938 18.9996 174.66C18.8846 174.382 18.8545 174.077 18.9132 173.782C18.9718 173.488 19.1164 173.217 19.3289 173.004L35.5226 156.811C35.8076 156.527 36.1938 156.368 36.5963 156.368C36.9987 156.369 37.3846 156.529 37.6692 156.813C37.9538 157.098 38.1138 157.484 38.1141 157.886C38.1145 158.289 37.9551 158.675 37.6711 158.96L21.4773 175.153C21.3364 175.294 21.169 175.406 20.9846 175.483C20.8003 175.559 20.6026 175.598 20.4031 175.598V175.598Z" fill="#6C63FF"/>
<path id="Vector_44" d="M36.5966 175.598C36.397 175.598 36.1994 175.559 36.015 175.483C35.8307 175.406 35.6633 175.294 35.5224 175.153L19.3292 158.96C19.0443 158.675 18.8843 158.288 18.8843 157.885C18.8843 157.483 19.0443 157.096 19.3293 156.811C19.6142 156.526 20.0006 156.366 20.4035 156.366C20.8064 156.366 21.1928 156.526 21.4777 156.811L37.6708 173.004C37.8832 173.217 38.0279 173.488 38.0865 173.782C38.1451 174.077 38.115 174.382 38 174.66C37.8851 174.938 37.6904 175.175 37.4406 175.342C37.1907 175.509 36.897 175.598 36.5966 175.598L36.5966 175.598Z" fill="#6C63FF"/>
<path id="Vector_45" d="M28.5 194.482C22.8632 194.482 17.353 192.811 12.6662 189.679C7.97942 186.547 4.32651 182.096 2.16941 176.889C0.012316 171.681 -0.552076 165.951 0.547603 160.422C1.64728 154.894 4.36164 149.815 8.34744 145.83C12.3332 141.844 17.4114 139.129 22.9399 138.03C28.4684 136.93 34.1988 137.495 39.4065 139.652C44.6142 141.809 49.0652 145.462 52.1969 150.148C55.3285 154.835 57 160.345 57 165.982C56.9914 173.538 53.986 180.782 48.643 186.125C43.3001 191.468 36.056 194.474 28.5 194.482V194.482ZM28.5 140.482C23.4566 140.482 18.5264 141.978 14.3329 144.78C10.1395 147.582 6.87109 151.564 4.94105 156.224C3.01102 160.883 2.50603 166.01 3.48995 170.957C4.47388 175.903 6.90252 180.447 10.4688 184.013C14.035 187.58 18.5787 190.008 23.5252 190.992C28.4717 191.976 33.5989 191.471 38.2584 189.541C42.9179 187.611 46.9005 184.343 49.7025 180.149C52.5044 175.956 54 171.026 54 165.982C53.9923 159.222 51.3032 152.74 46.5227 147.959C41.7422 143.179 35.2606 140.49 28.5 140.482Z" fill="#6C63FF"/>
<path id="Vector_46" d="M888.615 194.317C882.978 194.317 877.468 192.645 872.781 189.513C868.094 186.382 864.441 181.931 862.284 176.723C860.127 171.515 859.563 165.785 860.662 160.257C861.762 154.728 864.477 149.65 868.462 145.664C872.448 141.678 877.526 138.964 883.055 137.864C888.583 136.765 894.314 137.329 899.521 139.486C904.729 141.643 909.18 145.296 912.312 149.983C915.443 154.67 917.115 160.18 917.115 165.817C917.106 173.373 914.101 180.617 908.758 185.96C903.415 191.303 896.171 194.308 888.615 194.317V194.317ZM888.615 140.317C883.571 140.317 878.641 141.812 874.448 144.614C870.254 147.416 866.986 151.399 865.056 156.058C863.126 160.718 862.621 165.845 863.605 170.791C864.589 175.738 867.017 180.282 870.584 183.848C874.15 187.414 878.693 189.843 883.64 190.827C888.587 191.811 893.714 191.306 898.373 189.376C903.033 187.446 907.015 184.177 909.817 179.984C912.619 175.79 914.115 170.86 914.115 165.817C914.107 159.056 911.418 152.574 906.638 147.794C901.857 143.013 895.376 140.324 888.615 140.317Z" fill="#6C63FF"/>
</g>
</g>
<defs>
<clipPath id="clip0">
<rect width="917.115" height="517.759" fill="white"/>
</clipPath>
</defs>
</svg>
